<svg xmlns="http://www.w3.org/2000/svg" width="30" height="30" viewBox="0 0 30 30"><path d="M15.445 6.492c-.093.04-.398.176-.64.29-.11.046-.278.128-.38.175-.105.047-.378.176-.609.281-.23.106-.488.227-.57.262-.082.035-.34.156-.57.262-.516.238-.762.351-.977.453-.09.039-.351.16-.586.265-.71.332-.867.403-.957.446-.508.226-.672.312-.683.363-.028.094-.04 5.633-.012 5.672.023.039.098.074.664.328.164.078.375.172.465.211.09.043.219.102.285.129.066.031.195.09.285.129.09.043.29.129.434.195.152.067.547.242.886.399.34.152.805.363 1.036.464.23.106.496.22.586.262.523.242.64.293.671.293.051 0 .079-1.367.079-3.902V11.5l-.325-.14a84.47 84.47 0 0 1-1.132-.5c-.262-.122-.801-.36-.81-.36-.01 0-.085-.031-.17-.07a34.928 34.928 0 0 0-1.142-.508c-.12-.059-.304-.14-.414-.192-.3-.132-.37-.171-.379-.21-.011-.032.157-.122.633-.34.117-.051.293-.133.39-.176.102-.05.231-.106.286-.133.059-.023.23-.101.375-.172.152-.066.332-.152.406-.183l.375-.176c.133-.059.34-.156.465-.211.121-.055.38-.168.567-.258.187-.09.343-.16.347-.16.008 0 .153-.07.332-.152.176-.082.324-.149.328-.149a40.176 40.176 0 0 1 .86-.387c.34-.148.414-.195.37-.238a3.605 3.605 0 0 0-.362-.176c-.278-.125-.34-.144-.407-.117Zm0 0"/><path d="M20.504 9.242c-.262.125-.442.203-2.078.93l-1.606.715c-.191.09-1.347.601-1.422.633l-.07.03v2.938c0 1.617.016 2.946.027 2.953.012.008.098-.015.188-.058.09-.043.453-.207.809-.363.351-.157.699-.31.761-.34.067-.032.29-.13.496-.22.207-.089.461-.202.57-.25.11-.05.727-.323 1.376-.608l1.175-.524v-2.95c0-1.62-.007-2.952-.02-2.956-.015-.012-.105.023-.206.07Zm0 0"/><path d="M20.98 15.508c-.18.078-.375.164-.43.191-.058.028-.288.13-.51.227-.224.097-.481.21-.571.254-.09.039-.274.12-.403.18a9.818 9.818 0 0 0-.406.18c-.187.085-.34.148-.676.3-.132.055-.312.137-.406.18-.187.085-.336.148-.672.3-.133.055-.32.137-.414.184-.406.183-.515.23-.691.305l-.32.136c-.32.149-.333.153-.434.114-.05-.024-.207-.09-.34-.157a4.41 4.41 0 0 0-.266-.113c-.004 0-.07-.027-.14-.055-.07-.035-1.156-.52-2.422-1.082a436.884 436.884 0 0 1-2.559-1.14 1.415 1.415 0 0 0-.351-.121c-.051 0-.223.058-.38.129-.163.07-.32.14-.347.148-.027.012-.05.035-.05.05 0 .02.023.04.05.052.047.015 5.988 2.648 6.313 2.793.375.175.547.246.582.246.039 0 .316-.118.703-.29.09-.042.332-.152.539-.242.207-.09.45-.195.543-.238.09-.043.332-.148.539-.238.207-.09.45-.2.539-.242.09-.043.332-.149.54-.239.206-.09.448-.199.538-.242.094-.043.336-.148.543-.238.207-.09.461-.203.57-.254.106-.05.329-.148.493-.223.168-.066.402-.172.527-.23.121-.055.379-.168.562-.246a2.27 2.27 0 0 0 .336-.164c-.004-.02-.625-.301-.742-.336-.043-.016-.168.023-.387.12Zm0 0"/></svg>