<svg xmlns="http://www.w3.org/2000/svg" width="30" height="30" viewBox="0 0 30 30"><path d="M15.238 6.566c-.14.063-.347.16-.465.215-.226.106-1.265.582-1.484.684-.074.031-.254.117-.402.183-.149.07-.348.16-.438.204-1.004.457-2.222 1.02-2.676 1.234l-.324.152v.996c0 .551-.008 1.836-.02 2.86-.015 1.582-.011 1.867.024 1.894.024.02.48.227 1.016.473.539.238 1.46.652 2.05.918.59.266 1.153.516 1.247.558.484.223.968.434 1.007.434.043 0 .082-1.848.09-4.32v-1.547l-.57-.254c-.316-.14-.64-.285-.723-.32l-1.3-.582c-.637-.282-1.297-.578-1.465-.657-.172-.074-.32-.152-.325-.168-.011-.027.172-.12.997-.496.097-.047.53-.246.968-.445.43-.2.79-.363.797-.363.004 0 .153-.067.324-.145.172-.082.602-.281.957-.437.356-.164.766-.352.915-.426.152-.066.39-.176.53-.234.145-.063.274-.13.29-.149.02-.023-.078-.082-.352-.207-.21-.094-.386-.172-.394-.172-.012 0-.13.055-.274.117Zm0 0"/><path d="M20.352 9.293a17.05 17.05 0 0 1-.45.207l-1.168.52c-.297.136-.87.394-1.996.894-.668.297-1.261.563-1.316.59l-.106.05.008 2.946c.004 1.617.012 2.95.02 2.953.011.012.289-.105.62-.258.337-.144 1.454-.644 2.485-1.101a163.21 163.21 0 0 0 2.098-.934l.219-.101-.008-2.954c-.012-2.605-.02-2.957-.059-2.953-.023 0-.18.067-.347.141Zm0 0"/><path d="M8.527 15.531c-.203.094-.367.18-.367.192 0 .007.043.035.098.058.05.02.191.082.308.133.118.055.313.14.434.195.121.055.277.121.344.153.066.027.324.14.57.25.25.11.477.215.512.226.031.016.199.09.375.168a24.015 24.015 0 0 0 .676.297c.05.027.238.11.418.192.734.332 2.8 1.246 2.996 1.328.117.047.23.086.261.086.051 0 .114-.028.563-.227.094-.047.305-.137.469-.207.168-.07.386-.168.496-.219.11-.047.351-.156.539-.242a102.56 102.56 0 0 0 1.11-.492c.206-.09.437-.192.51-.227.075-.03.317-.14.54-.238.223-.102.48-.215.57-.258.09-.039.32-.14.512-.222.187-.082.43-.192.539-.243.11-.047.402-.18.652-.289.25-.113.457-.215.457-.222-.004-.032-.726-.364-.8-.364-.02 0-.176.063-.344.137-.172.078-.426.195-.567.254-.277.121-1.89.84-2.082.926-.066.031-.296.133-.511.23-.211.09-.465.203-.555.246l-.977.434c-.441.195-.878.39-.968.434l-.16.074-3.075-1.367c-1.687-.75-3.093-1.368-3.125-1.368a3.749 3.749 0 0 0-.418.172ZM17.355 20.18c-.16.008-.277.027-.289.047-.011.02-.023.78-.023 1.695v1.656h.68l.004-.32.007-.324.157-.157c.082-.086.172-.156.199-.156.035 0 .676.762.777.922.02.027.121.035.422.031l.398-.008-.175-.23c-.098-.125-.34-.441-.547-.7-.293-.374-.36-.48-.336-.519.012-.027.23-.254.476-.504.25-.246.454-.457.454-.468 0-.016-.157-.024-.352-.024-.426 0-.367-.035-.98.55-.274.263-.454.407-.48.4-.036-.016-.04-.16-.036-.926 0-.844-.012-.993-.066-.98a2.17 2.17 0 0 1-.29.015ZM7.121 20.387c-.52.113-.851.465-.851.918 0 .246.058.386.226.554.176.176.305.235.902.387.59.152.73.238.73.457 0 .074-.026.129-.097.203-.234.235-.847.211-1.394-.054-.114-.055-.2-.082-.215-.063a3.807 3.807 0 0 0-.207.473c.203.14.476.242.832.304.45.079.867.04 1.187-.101a.956.956 0 0 0 .485-.43c.074-.14.086-.191.086-.398-.004-.508-.211-.688-1.055-.914-.531-.141-.637-.18-.727-.278-.085-.09-.085-.258 0-.367.122-.152.22-.183.598-.183.309.003.363.011.54.085.323.141.304.149.417-.128.113-.278.117-.262-.137-.36-.382-.144-.933-.191-1.32-.105ZM20.16 21.988l.004 1.59h.688l-.016-3.164-.34-.008-.336-.008ZM9.441 20.598c-.011.011-.02.14-.02.285 0 .172-.015.27-.038.285a.535.535 0 0 1-.184.023l-.152.004-.012.22c-.008.265.02.315.164.288a.347.347 0 0 1 .156 0c.063.02.067.04.067.617 0 .805.055.973.387 1.153.27.144.808.144.988-.008l.062-.05-.082-.204c-.07-.18-.086-.2-.14-.184-.145.047-.32.047-.39 0-.153-.097-.169-.18-.161-.773l.008-.55.297-.009.293-.008-.008-.246-.012-.246-.242-.004a2.375 2.375 0 0 1-.293-.02c-.035-.015-.05-.077-.055-.296l-.008-.281-.304-.008c-.164-.004-.309 0-.32.012ZM12.203 21.121c-.25.04-.539.184-.707.352-.582.582-.426 1.586.3 1.953.56.281 1.274.176 1.669-.246.215-.23.3-.43.324-.746.05-.692-.39-1.215-1.11-1.313a4.924 4.924 0 0 0-.269-.027c-.02.004-.113.015-.207.027Zm.512.559c.262.105.406.34.406.656 0 .25-.086.453-.25.586a.644.644 0 0 1-.848-.055c-.16-.152-.21-.312-.199-.59.012-.191.028-.242.106-.351.175-.254.515-.363.785-.246ZM15.262 21.121c-.383.043-.766.29-.938.598-.3.535-.172 1.23.293 1.578.238.18.461.258.79.273.312.024.527-.015.741-.133.157-.085.41-.335.41-.41 0-.03-.097-.093-.242-.172l-.242-.117-.11.106c-.155.16-.26.207-.472.207a.625.625 0 0 1-.562-.324c-.082-.13-.09-.172-.094-.375 0-.25.059-.403.215-.547.261-.25.703-.227.926.047l.09.109.21-.11c.297-.156.305-.163.227-.292-.207-.332-.688-.5-1.242-.438ZM22.836 21.121a1.018 1.018 0 0 0-.477.219c-.082.07-.101.055-.125-.09l-.02-.113h-.6l-.005 1.218-.007 1.223h.66v-.668c0-.695.015-.851.11-.976a.591.591 0 0 1 .444-.262c.247-.024.418.066.516.258.063.129.066.175.066.89l.004.758h.649l.02-.156c.007-.086.003-.496-.009-.906-.023-.864-.042-.93-.304-1.168-.23-.203-.57-.29-.922-.227Zm0 0"/></svg>