<?xml version="1.0" standalone="no"?>
<!DOCTYPE svg PUBLIC "-//W3C//DTD SVG 20010904//EN"
 "http://www.w3.org/TR/2001/REC-SVG-20010904/DTD/svg10.dtd">
<svg version="1.0" xmlns="http://www.w3.org/2000/svg"
 width="500.000000pt" height="500.000000pt" viewBox="0 0 500.000000 500.000000"
 preserveAspectRatio="xMidYMid meet">


<rect x="70" y="70" width="80%" height="80%" fill="white" />

<g transform="translate(0.000000,500.000000) scale(0.100000,-0.100000)"
fill="#0571ff" stroke="none">
<path d="M710 4980 c-188 -40 -324 -114 -466 -255 -109 -108 -166 -193 -215
-320 l-29 -75 3 -1733 c3 -1626 4 -1737 21 -1807 44 -184 127 -337 258 -475
164 -174 366 -275 608 -305 116 -14 3104 -14 3220 0 241 30 440 129 603 299
130 137 202 264 255 450 l27 96 0 1645 0 1645 -27 99 c-80 290 -269 522 -535
655 -82 41 -207 76 -318 90 -62 8 -585 11 -1705 10 -1520 0 -1620 -1 -1700
-19z m1977 -790 c59 -27 109 -53 110 -57 1 -4 -129 -68 -290 -142 -161 -73
-527 -242 -815 -375 -504 -232 -522 -241 -495 -254 15 -7 291 -129 613 -272
l585 -259 -3 -678 c-2 -674 -9 -983 -21 -983 -3 1 -343 153 -756 338 l-750
338 -3 420 c-2 230 0 595 4 811 l6 392 262 119 c521 239 1253 576 1331 613 44
20 88 38 97 38 10 1 66 -21 125 -49z m1343 -1533 l0 -834 -372 -166 c-205 -91
-545 -242 -756 -336 -210 -94 -387 -171 -392 -171 -7 0 -9 291 -8 836 l3 836
750 334 c413 184 756 334 763 334 9 0 12 -173 12 -833z m-2412 -1280 l843
-376 853 379 c469 209 860 380 867 380 16 0 249 -103 249 -110 0 -3 -37 -22
-82 -42 -46 -20 -485 -214 -976 -432 -491 -218 -901 -396 -912 -396 -10 0
-382 161 -827 359 -444 197 -883 392 -975 432 -92 41 -168 76 -168 79 0 13
237 110 260 106 14 -2 404 -173 868 -379z"/>
</g>
</svg>
